- 
http://www.Speed.Cd 
       
http://www.Speed.Cd      fast  and The Hottest Private Tracker on the net

(((--Submit for invite!!--)))

Please Seed back to make the speed Faster!!!

------------------nfo--------------------------
-                                                                                                     
       
     
     
       
       
     
     
                                         
                                         
                EXVID                    
                                         
         
                                         
         Filled the Archives             
                                         
         
                                         
                With:                    
                                         
         
                                         
                                    
     E240                           
                                    
     SP               (C) 2009      
                                         
     
     
     
                                                                                  
                                                                                   
                Three.To.Tango.1999.iNTERNAL.DVDRip.XviD-EXViDiNT                   
                                                                                   
                                                                                  
     
                                                                                               
EXViD aims to iNTERNAL those releases which have been lost in the archives.
EXViD aims to PRE non-internal releases which have poor sources and are likely skipped by others. 
http://www.imdb.com/title/tt0144640/
Subtitles: EN, FR, IT, NL, AR, ES, PT, DE
Date: 2011.10

Director: Damon Santostefano

Genres: Comedy | Romance 

Plot:
A rich businessman, Dylan McDermott, mistakenly believes that Matthew Perry, who is bidding on 
a $90 million restoration contract, is gay and asks him to keep tabs on his mistress, Neve 
Campbell. Perry, who is not gay, falls for Neve in a big way but she thinks he's gay.

Cast:
Matthew Perry 	... 	Oscar Novak
Neve Campbell 	... 	Amy Post
Dylan McDermott ... 	Charles Newman
Oliver Platt 	... 	Peter Steinberg
Cylk Cozart 	... 	Kevin Cartwright
John C. McGinley... 	Strauss
Bob Balaban 	... 	Decker
Deborah Rush 	... 	Lenore
Kelly Rowan 	... 	Olivia Newman
Rick Gomez 	... 	Rick
Patrick Van Horn... 	Zack
David Ramsey 	... 	Bill
Kent Staines 	... 	Gallery Owner
Ho Chow 	... 	Cabbie

Stats:
General
Format                           : AVI
Format/Info                      : Audio Video Interleave
File size                        : 702 MiB
Duration                         : 1h 34mn
Overall bit rate                 : 1 039 Kbps
Writing application              : MEncoder 1.0rc4-4.5.2
Writing library                  : MPlayer

Video
ID                               : 0
Format                           : MPEG-4 Visual
Format profile                   : Advanced Simple@L5
Format settings, BVOP            : Yes
Format settings, QPel            : No
Format settings, GMC             : No warppoints
Format settings, Matrix          : Default (H.263)
Codec ID                         : XVID
Codec ID/Hint                    : XviD
Duration                         : 1h 34mn
Bit rate                         : 908 Kbps
Width                            : 640 pixels
Height                           : 360 pixels
Display aspect ratio             : 16:9
Frame rate                       : 25.000 fps
Color space                      : YUV
Chroma subsampling               : 4:2:0
Bit depth                        : 8 bits
Scan type                        : Progressive
Compression mode                 : Lossy
Bits/(Pixel*Frame)               : 0.158
Stream size                      : 613 MiB (87%)
Writing library                  : XviD 1.2.1 (UTC 2008-12-04)

Audio
ID                               : 1
Format                           : MPEG Audio
Format version                   : Version 1
Format profile                   : Layer 3
Mode                             : Joint stereo
Mode extension                   : MS Stereo
Codec ID                         : 55
Codec ID/Hint                    : MP3
Duration                         : 1h 34mn
Bit rate mode                    : Variable
Bit rate                         : 119 Kbps
Channel(s)                       : 2 channels
Sampling rate                    : 48.0 KHz
Compression mode                 : Lossy
Stream size                      : 80.3 MiB (11%)
Alignment                        : Aligned on interleaves
Interleave, duration             : 24 ms (0.60 video frame)
Interleave, preload duration     : 177 ms


Release notes:

enjoy!

Looking for:
75TB+ Archives
DUTCH/FLEMiSH Archives
                                                                                                    
Greets: CRBS EPiSODE FiCO FLS iLS KLASSiGER LiPSYNC MADE NODLABS RUNNER SPRiNTER      
   

                                                                    ASCII DONE BY XX^NFO 2oo9